<svg xmlns="http://www.w3.org/2000/svg" width="280" height="280" viewBox="0 0 114.54 93.8"><path fill="#2e42ff" d="M56.51 48.93c-.02.06-.06.12-.08.19-.9 1.31-1.72 2.18-6.14 3.02-2.79.55-5.26-.18-5.73-1.33-.02-.06-.02-.1-.04-.16l-29.15 4.19 29.11-5.03c.58-.74 3.31-1.62 5.69-1.93 1.97-.25 4.5-.18 5.6.12l41.34-6.59-7.18-4.68L16.73 54l-1.48.35-2.26.51-5.36 1.09h-.06l-4.08.6 11.35-4.31c-.45-2.59-.57-5.26-.35-7.99 1.48-17.9 17.22-31.24 35.1-29.76 10.51.86 19.46 6.65 24.73 14.9l.92-.12 13.67-3.16C81.86 11.88 67.74 1.58 50.78.16 25-1.96 2.29 17.28.16 43.04c-.39 4.76-.06 9.42.92 13.86.04.18.06.37.12.53 4.48 19.34 21.02 34.49 41.86 36.21 10.2.84 19.91-1.66 28.08-6.61h.02l20.9-27.32 2.69-3.51 7.04-.1 12.75-15.48zm18 10.16-6.4 1.15 3.46 2.72-9.86 12.91-.02.02a32.1 32.1 0 0 1-17.45 3.43C30.9 78.23 20.1 69.16 16.1 57.23l59.59-.78.86-.02 14.14-.19z"/></svg>